<svg width="1024" height="1185" viewBox="0 0 1024 1185" fill="none" xmlns="http://www.w3.org/2000/svg">
<path d="M69.5193 197.343L262.808 133.785C360.226 101.751 452.89 56.7522 538.305 0V0L1024 201.883V515.011C1024 819.573 828.526 1089.74 539.244 1185V1185L497.178 1162.85C462.013 1144.33 425.542 1128.41 388.056 1115.2L252.712 1067.53L369.913 1027.2C547.012 966.24 692.926 837.899 775.985 670.028V670.028L712.877 727.347C605.081 825.256 478.941 900.818 341.754 949.662V949.662C298.86 964.934 251.078 956.17 216.397 926.67L189.769 904.021L90.1872 840.119L174.881 824.913C191.595 821.912 207.746 816.349 222.763 808.42L437.178 695.212C602.656 607.841 742.93 479.447 844.565 322.328V322.328L822.482 342.659C642.237 508.602 431.686 638.233 202.358 724.453V724.453C164.897 738.537 122.772 723.059 103.34 688.072L80.7927 647.474L0 580.753V580.753C92.8069 575.802 183.387 550.486 265.312 506.6L312.837 481.142L345.031 460.148C422.293 409.766 493.827 351.105 558.363 285.204L596.55 246.209L545.91 282.891C471.018 337.139 389.331 381.325 302.941 414.316L118.053 484.923C86.8888 496.824 53.8166 472.635 55.7163 439.33L69.5193 197.343Z" fill="url(#paint0_linear_1206_3)"/>
<defs>
<linearGradient id="paint0_linear_1206_3" x1="0" y1="592.5" x2="1024" y2="592.5" gradientUnits="userSpaceOnUse">
<stop stop-color="#85141D"/>
<stop offset="1" stop-color="#FD1E27"/>
</linearGradient>
</defs>
</svg>
